<svg width="40" height="41" viewBox="0 0 40 41" fill="none" xmlns="http://www.w3.org/2000/svg">
<path fill-rule="evenodd" clip-rule="evenodd" d="M13.8881 0.588797C12.7835 0.588797 11.8881 1.48423 11.8881 2.5888V13.6299H2.59353C1.48896 13.6299 0.593531 14.5253 0.593531 15.6299C0.593531 16.7345 1.48896 17.6299 2.59353 17.6299H13.8881C14.9926 17.6299 15.8881 16.7345 15.8881 15.6299C15.8881 15.6024 15.8875 15.575 15.8864 15.5477C15.8875 15.5204 15.8881 15.493 15.8881 15.4655V2.5888C15.8881 1.48423 14.9926 0.588797 13.8881 0.588797ZM25.541 0.588797C24.4365 0.588797 23.541 1.48423 23.541 2.5888V15.4655C23.541 16.3427 24.1057 17.088 24.8914 17.3577C25.1874 17.5307 25.5319 17.6299 25.8995 17.6299H37.194C38.2986 17.6299 39.194 16.7345 39.194 15.6299C39.194 14.5253 38.2986 13.6299 37.194 13.6299H27.541V2.5888C27.541 1.48423 26.6456 0.588797 25.541 0.588797ZM25.8992 40.4792C27.0038 40.4792 27.8992 39.5837 27.8992 38.4792V27.4381H37.1937C38.2983 27.4381 39.1937 26.5426 39.1937 25.4381C39.1937 24.3335 38.2983 23.4381 37.1937 23.4381H25.8992C24.7946 23.4381 23.8992 24.3335 23.8992 25.4381C23.8992 25.4656 23.8998 25.493 23.9009 25.5203C23.8998 25.5475 23.8992 25.5749 23.8992 25.6025V38.4792C23.8992 39.5837 24.7946 40.4792 25.8992 40.4792ZM14.2462 40.4792C15.3508 40.4792 16.2462 39.5837 16.2462 38.4792V25.6025C16.2462 24.7253 15.6815 23.98 14.8958 23.7103C14.5998 23.5372 14.2554 23.4381 13.8878 23.4381H2.59326C1.48869 23.4381 0.593262 24.3335 0.593262 25.4381C0.593262 26.5426 1.48869 27.4381 2.59326 27.4381H12.2462V38.4792C12.2462 39.5837 13.1417 40.4792 14.2462 40.4792Z" fill="#55A5D9"/>
</svg>
