<svg width="26" height="22" viewBox="0 0 26 22" fill="none" xmlns="http://www.w3.org/2000/svg">
<path d="M25.2714 9.18109L25.2713 9.18115L25.2761 9.18679C25.3602 9.28506 25.4207 9.40121 25.4531 9.52641C25.4853 9.65073 25.4889 9.78071 25.4636 9.90659L23.5604 18.3238L23.5602 18.3249C23.4068 19.0158 23.0229 19.6339 22.4716 20.0776C21.9205 20.5212 21.2348 20.764 20.5273 20.7663C20.5271 20.7663 20.5269 20.7663 20.5267 20.7663L4.20801 20.7663C3.38144 20.7663 2.58873 20.4379 2.00425 19.8534L1.80391 20.0538L2.00425 19.8534C1.41978 19.269 1.09143 18.4762 1.09143 17.6497V4.05007C1.09143 3.22351 1.41978 2.43079 2.00425 1.84632C2.58873 1.26185 3.38144 0.933497 4.20801 0.933497L8.24256 0.933499L8.24365 0.933495C8.89019 0.931002 9.5215 1.12965 10.0501 1.50192C10.5776 1.87338 10.9768 2.39937 11.1926 3.00727L11.5539 4.13642L11.617 4.3334H11.8238H18.9409C19.7675 4.3334 20.5602 4.66175 21.1447 5.24622C21.7291 5.83069 22.0575 6.62341 22.0575 7.44997V8.58327V8.8666H22.3408L24.6074 8.8666L24.6084 8.8666C24.7354 8.86617 24.8608 8.89419 24.9756 8.94862C25.0903 9.00304 25.1914 9.08248 25.2714 9.18109ZM6.03704 17.9613L6.03739 17.9596L7.88431 9.5295C7.88437 9.52924 7.88443 9.52899 7.88448 9.52874C7.92778 9.33731 8.03599 9.16675 8.19076 9.04603C8.34573 8.92515 8.5378 8.86171 8.73429 8.86652L8.73428 8.8666H8.74121H20.0742H20.3575V8.58327V7.44997C20.3575 7.07426 20.2083 6.71394 19.9426 6.44827C19.677 6.1826 19.3166 6.03335 18.9409 6.03335H11.0151C10.8465 6.02403 10.6844 5.96469 10.5496 5.86284C10.4133 5.7599 10.3113 5.61831 10.2567 5.45654C10.2566 5.45626 10.2565 5.45597 10.2564 5.45569L9.64497 3.5988L9.64441 3.59714C9.54585 3.30392 9.35401 3.05103 9.09821 2.87709C8.84456 2.70461 8.54184 2.61915 8.23558 2.63345H4.20801C3.83229 2.63345 3.47197 2.7827 3.2063 3.04837C2.94063 3.31404 2.79138 3.67436 2.79138 4.05007V17.6497C2.79138 18.0254 2.94063 18.3857 3.2063 18.6514C3.47197 18.9171 3.83229 19.0663 4.20801 19.0663H4.62403C4.95024 19.0734 5.26895 18.9677 5.52629 18.767C5.78458 18.5656 5.96506 18.2808 6.03704 17.9613ZM7.58885 18.6638L7.40229 19.0663H7.8459H20.4902C20.8164 19.0734 21.1352 18.9677 21.3925 18.767C21.6507 18.5656 21.8311 18.2811 21.9031 17.9617C21.9032 17.9615 21.9032 17.9614 21.9032 17.9612L23.5236 10.9134L23.6033 10.5666H23.2475H9.64785H9.42065L9.37129 10.7883L7.69401 18.3248L7.69374 18.3247L7.69157 18.337C7.6716 18.4499 7.63708 18.5598 7.58885 18.6638Z" fill="#333333" stroke="white" stroke-width="0.56665"/>
</svg>
