<svg width="24" height="23" viewBox="0 0 24 23" fill="none" xmlns="http://www.w3.org/2000/svg">
<path d="M11.2531 11.5803L11.2911 11.5145V11.4385V5.85132C11.2911 5.62589 11.3807 5.4097 11.5401 5.25029C11.6995 5.09089 11.9157 5.00134 12.1411 5.00134C12.3665 5.00134 12.5827 5.09089 12.7421 5.25029C12.9015 5.4097 12.9911 5.62589 12.9911 5.85132V11.4923L12.973 11.5918L12.9653 11.634L12.9705 11.6765C12.9912 11.8478 12.9593 12.0214 12.8791 12.174L11.1817 15.1161L11.1815 15.1165C11.0686 15.3129 10.8824 15.4564 10.6638 15.5154C10.4452 15.5744 10.212 15.5442 10.0157 15.4314C9.81934 15.3185 9.67587 15.1323 9.61682 14.9137C9.55782 14.6953 9.58794 14.4623 9.70055 14.2661C9.70065 14.2659 9.70074 14.2658 9.70084 14.2656L11.2531 11.5803ZM6.00224 2.33035C7.81935 1.11619 9.95569 0.46814 12.1411 0.46814C13.5922 0.46814 15.029 0.753948 16.3696 1.30925C17.7103 1.86454 18.9284 2.67846 19.9544 3.70452C20.9805 4.73057 21.7944 5.94868 22.3497 7.28929C22.905 8.6299 23.1908 10.0668 23.1908 11.5178C23.1908 13.7032 22.5427 15.8396 21.3286 17.6567C20.1144 19.4738 18.3887 20.8901 16.3696 21.7264C14.3506 22.5627 12.1289 22.7815 9.98543 22.3552C7.842 21.9288 5.87314 20.8764 4.32781 19.3311C2.78249 17.7858 1.73011 15.8169 1.30375 13.6735C0.877398 11.5301 1.09622 9.30835 1.93254 7.28929C2.76887 5.27022 4.18513 3.5445 6.00224 2.33035ZM6.94668 19.2918C8.48424 20.3192 10.2919 20.8675 12.1411 20.8675C14.6208 20.8675 16.999 19.8825 18.7524 18.1291C20.5058 16.3757 21.4908 13.9975 21.4908 11.5178C21.4908 9.66862 20.9425 7.86094 19.9151 6.32339C18.8878 4.78583 17.4275 3.58746 15.7191 2.8798C14.0107 2.17214 12.1307 1.98698 10.3171 2.34774C8.5034 2.7085 6.83744 3.59898 5.52986 4.90656C4.22228 6.21415 3.3318 7.88011 2.97104 9.69378C2.61028 11.5074 2.79543 13.3874 3.50309 15.0958C4.21075 16.8042 5.40913 18.2645 6.94668 19.2918Z" fill="#333333" stroke="white" stroke-width="0.56665"/>
</svg>
