<svg width="39" height="38" viewBox="0 0 39 38" fill="none" xmlns="http://www.w3.org/2000/svg">
<path d="M19.5 2.27095C19.5 1.01674 20.52 -0.013342 21.7661 0.128723C24.8207 0.476948 27.7587 1.52572 30.3336 3.20208C33.5404 5.28983 36.0397 8.25722 37.5157 11.729C38.9916 15.2008 39.3777 19.0211 38.6253 22.7067C37.8729 26.3924 36.0157 29.7778 33.2886 32.435C30.5614 35.0922 27.0869 36.9018 23.3042 37.6349C19.5216 38.368 15.6008 37.9918 12.0377 36.5537C8.4745 35.1156 5.42902 32.6804 3.28633 29.5558C1.58834 27.0797 0.517728 24.2589 0.146483 21.3246C-0.0150846 20.0476 1.0435 19 2.33071 19C3.61793 19 4.64186 20.0505 4.85373 21.3201C5.19318 23.3545 5.97676 25.3039 7.16217 27.0325C8.79265 29.4101 11.1101 31.2632 13.8215 32.3575C16.5329 33.4518 19.5165 33.7382 22.3949 33.1803C25.2733 32.6224 27.9172 31.2454 29.9924 29.2234C32.0677 27.2014 33.4809 24.6252 34.0534 21.8206C34.626 19.016 34.3321 16.109 33.2091 13.4671C32.086 10.8253 30.1841 8.56721 27.7439 6.97854C25.9362 5.80166 23.8933 5.03127 21.7626 4.71096C20.5223 4.52451 19.5 3.52517 19.5 2.27095Z" fill="#55A5D9"/>
</svg>
