<svg width="19" height="23" viewBox="0 0 19 23" fill="none" xmlns="http://www.w3.org/2000/svg">
<path d="M10.143 12.7152L10.6292 12.2311H9.94306H1.34131C1.11588 12.2311 0.899686 12.1415 0.740286 11.9821C0.580884 11.8227 0.491333 11.6065 0.491333 11.3811C0.491333 11.1557 0.580884 10.9395 0.740285 10.7801C0.899686 10.6207 1.11588 10.5311 1.34131 10.5311H9.94306H10.6292L10.143 10.047L7.53681 7.4522C7.53677 7.45217 7.53674 7.45213 7.5367 7.4521C7.4574 7.37276 7.39448 7.27859 7.35155 7.17494C7.3086 7.07126 7.2865 6.96013 7.2865 6.8479C7.2865 6.73567 7.3086 6.62454 7.35155 6.52085C7.3945 6.41717 7.45745 6.32295 7.53681 6.2436C7.61617 6.16424 7.71038 6.10129 7.81406 6.05834C7.91775 6.01539 8.02888 5.99329 8.14111 5.99329C8.25334 5.99329 8.36447 6.01539 8.46816 6.05834C8.57184 6.10129 8.66605 6.16424 8.74541 6.2436L13.2763 10.7745C13.3527 10.8548 13.4127 10.9494 13.4528 11.0529L13.4527 11.0529L13.4549 11.0581C13.5399 11.265 13.5399 11.4972 13.4549 11.7041L13.4548 11.7041L13.4528 11.7093C13.4127 11.8128 13.3527 11.9074 13.2763 11.9877L8.74541 16.5186L8.74459 16.5194C8.66558 16.5991 8.57157 16.6623 8.46799 16.7055C8.36442 16.7486 8.25332 16.7708 8.14111 16.7708C8.0289 16.7708 7.9178 16.7486 7.81423 16.7055C7.71065 16.6623 7.61665 16.5991 7.53763 16.5194L7.53599 16.5178C7.45632 16.4388 7.39309 16.3448 7.34993 16.2412C7.30678 16.1376 7.28456 16.0265 7.28456 15.9143C7.28456 15.8021 7.30678 15.691 7.34993 15.5874C7.39309 15.4838 7.45632 15.3898 7.53599 15.3108L7.53637 15.3104L10.143 12.7152ZM15.9426 2.44629L15.7423 2.64663L15.9426 2.44629C15.677 2.18062 15.3166 2.03137 14.9409 2.03137H3.60791C3.2322 2.03137 2.87187 2.18062 2.6062 2.44629C2.34054 2.71196 2.19128 3.07228 2.19128 3.448V6.8479C2.19128 7.07333 2.10173 7.28952 1.94233 7.44892C1.78293 7.60832 1.56674 7.69787 1.34131 7.69787C1.11588 7.69787 0.899687 7.60832 0.740285 7.44892C0.580884 7.28952 0.491333 7.07333 0.491333 6.8479V3.448C0.491333 2.62143 0.819686 1.82872 1.40416 1.24424C1.98863 0.659774 2.78134 0.331421 3.60791 0.331421H14.9409C15.7675 0.331421 16.5602 0.659774 17.1447 1.24425C17.7291 1.82872 18.0575 2.62143 18.0575 3.448V19.3142C18.0575 20.1408 17.7291 20.9335 17.1447 21.518C16.5602 22.1024 15.7675 22.4308 14.9409 22.4308H3.60791C2.78134 22.4308 1.98863 22.1024 1.40416 21.518L1.20382 21.7183L1.40416 21.518C0.819686 20.9335 0.491333 20.1408 0.491333 19.3142V15.9143C0.491333 15.6889 0.580884 15.4727 0.740285 15.3133C0.899686 15.1539 1.11588 15.0643 1.34131 15.0643C1.56674 15.0643 1.78293 15.1539 1.94233 15.3133C2.10173 15.4727 2.19128 15.6889 2.19128 15.9143V19.3142C2.19128 19.6899 2.34054 20.0502 2.6062 20.3159C2.87187 20.5816 3.2322 20.7308 3.60791 20.7308H14.9409C15.3166 20.7308 15.677 20.5816 15.9426 20.3159C16.2083 20.0502 16.3575 19.6899 16.3575 19.3142V3.448C16.3575 3.07229 16.2083 2.71196 15.9426 2.44629Z" fill="#333333" stroke="white" stroke-width="0.56665"/>
</svg>
