<svg width="24" height="20" viewBox="0 0 24 20" fill="none" xmlns="http://www.w3.org/2000/svg">
<path d="M13.5623 10.2209L13.2276 10.5106L13.6308 10.6932C15.1677 11.3891 16.4716 12.513 17.3867 13.9304C18.3018 15.3478 18.7893 16.9987 18.7909 18.6858C18.7908 18.9111 18.7013 19.1272 18.5419 19.2866C18.3825 19.446 18.1663 19.5355 17.9409 19.5355C17.7155 19.5355 17.4993 19.446 17.3399 19.2866C17.1805 19.1272 17.0909 18.911 17.0909 18.6855C17.0909 16.807 16.3447 15.0054 15.0163 13.677C13.688 12.3487 11.8864 11.6024 10.0078 11.6024C8.12925 11.6024 6.32763 12.3487 4.99928 13.677C3.67094 15.0054 2.92468 16.807 2.92468 18.6855C2.92468 18.911 2.83513 19.1272 2.67573 19.2866L2.87181 19.4826L2.67573 19.2866C2.51633 19.446 2.30013 19.5355 2.07471 19.5355C1.84928 19.5355 1.63308 19.446 1.47368 19.2866L1.27334 19.4869L1.47368 19.2866C1.31431 19.1272 1.22477 18.9111 1.22473 18.6857C1.22637 16.9986 1.71386 15.3477 2.6289 13.9304C3.54397 12.513 4.8479 11.3891 6.38479 10.6932L6.78804 10.5106L6.45335 10.2209C5.87937 9.72406 5.41899 9.10956 5.10346 8.4191C4.78793 7.72864 4.62462 6.97838 4.62463 6.21924C4.62463 4.79153 5.19179 3.4223 6.20133 2.41276C7.21087 1.40321 8.5801 0.836059 10.0078 0.836059C11.4355 0.836059 12.8047 1.40321 13.8143 2.41276C14.8238 3.4223 15.391 4.79153 15.391 6.21924C15.391 6.97838 15.2277 7.72864 14.9122 8.4191C14.5966 9.10956 14.1362 9.72406 13.5623 10.2209ZM13.0703 4.17295L12.8347 4.33035L13.0703 4.17295C12.6656 3.56724 12.0903 3.09515 11.4173 2.81638C10.7443 2.5376 10.0037 2.46466 9.28925 2.60678C8.57477 2.7489 7.91848 3.09969 7.40338 3.6148C6.88827 4.12991 6.53747 4.7862 6.39536 5.50067C6.25324 6.21515 6.32618 6.95572 6.60495 7.62875C6.88373 8.30177 7.35581 8.87701 7.96152 9.28173C8.56722 9.68645 9.27934 9.90246 10.0078 9.90246C10.9847 9.90246 11.9215 9.51441 12.6122 8.82367C13.303 8.13293 13.691 7.19609 13.691 6.21924C13.691 5.49076 13.475 4.77865 13.0703 4.17295ZM23.0776 7.13274L23.0781 7.13325C23.1595 7.21493 23.2235 7.31234 23.2661 7.41954C23.3087 7.52674 23.329 7.64148 23.3258 7.75678C23.3226 7.87208 23.296 7.98553 23.2476 8.09022C23.1992 8.1949 23.1299 8.28864 23.0441 8.36571L23.0385 8.37079L23.0331 8.37616L20.0078 11.4015C19.8485 11.5598 19.6331 11.6486 19.4085 11.6486C19.184 11.6486 18.9686 11.5598 18.8093 11.4015L17.2919 9.88405C17.2918 9.88395 17.2917 9.88385 17.2916 9.88375C17.1335 9.72453 17.0447 9.50923 17.0447 9.28481C17.0447 9.06026 17.1336 8.84484 17.2919 8.68558L17.2921 8.68536C17.3711 8.60569 17.4651 8.54246 17.5687 8.4993C17.6723 8.45615 17.7834 8.43393 17.8956 8.43393C18.0078 8.43393 18.1189 8.45615 18.2225 8.4993C18.3259 8.54241 18.4199 8.60556 18.4988 8.68511C18.4989 8.68519 18.499 8.68527 18.4991 8.68535L19.2009 9.39855L19.4013 9.60211L19.6032 9.40016L21.8698 7.13356L21.8706 7.13274C21.9497 7.05307 22.0437 6.98983 22.1472 6.94668C22.2508 6.90353 22.3619 6.88131 22.4741 6.88131C22.5863 6.88131 22.6974 6.90353 22.801 6.94668C22.9046 6.98983 22.9986 7.05307 23.0776 7.13274Z" fill="#333333" stroke="white" stroke-width="0.56665"/>
</svg>
