<svg width="62" height="62" viewBox="0 0 62 62" fill="none" xmlns="http://www.w3.org/2000/svg">
<path d="M38.75 54.25H33.5833V49.0833H38.75V54.25ZM33.5833 36.1667H28.4167V49.0833H33.5833V36.1667ZM54.25 31H49.0833V41.3333H54.25V31ZM49.0833 25.8333H43.9167V31H49.0833V25.8333ZM18.0833 31H12.9167V36.1667H18.0833V31ZM12.9167 25.8333H7.75V31H12.9167V25.8333ZM31 12.9167H36.1667V7.75H31V12.9167ZM11.625 11.625V19.375H19.375V11.625H11.625ZM23.25 23.25H7.75V7.75H23.25V23.25ZM11.625 42.625V50.375H19.375V42.625H11.625ZM23.25 54.25H7.75V38.75H23.25V54.25ZM42.625 11.625V19.375H50.375V11.625H42.625ZM54.25 23.25H38.75V7.75H54.25V23.25ZM49.0833 49.0833V41.3333H38.75V46.5H43.9167V54.25H54.25V49.0833H49.0833ZM43.9167 31H33.5833V36.1667H43.9167V31ZM33.5833 25.8333H18.0833V31H23.25V36.1667H28.4167V31H33.5833V25.8333ZM36.1667 23.25V18.0833H31V12.9167H25.8333V23.25H36.1667ZM17.4375 13.5625H13.5625V17.4375H17.4375V13.5625ZM17.4375 44.5625H13.5625V48.4375H17.4375V44.5625ZM48.4375 13.5625H44.5625V17.4375H48.4375V13.5625Z" fill="#3DB6BB"/>
</svg>
