<svg width="20" height="20" viewBox="0 0 20 20" fill="none" xmlns="http://www.w3.org/2000/svg">
<path d="M13.75 11.875H15V15H13.75V11.875Z" fill="#FF844F"/>
<path d="M14.375 19.375C13.3861 19.375 12.4194 19.0818 11.5972 18.5324C10.7749 17.9829 10.134 17.2021 9.7556 16.2884C9.37717 15.3748 9.27815 14.3695 9.47108 13.3996C9.664 12.4296 10.1402 11.5387 10.8395 10.8395C11.5387 10.1402 12.4296 9.664 13.3996 9.47108C14.3695 9.27815 15.3748 9.37717 16.2884 9.7556C17.2021 10.134 17.9829 10.7749 18.5324 11.5972C19.0818 12.4194 19.375 13.3861 19.375 14.375C19.375 15.7011 18.8482 16.9729 17.9105 17.9105C16.9729 18.8482 15.7011 19.375 14.375 19.375ZM14.375 10.625C13.6333 10.625 12.9083 10.8449 12.2916 11.257C11.6749 11.669 11.1943 12.2547 10.9105 12.9399C10.6266 13.6252 10.5524 14.3792 10.6971 15.1066C10.8418 15.834 11.1989 16.5022 11.7234 17.0267C12.2478 17.5511 12.916 17.9083 13.6434 18.0529C14.3708 18.1976 15.1248 18.1234 15.8101 17.8396C16.4953 17.5557 17.081 17.0751 17.493 16.4584C17.9051 15.8417 18.125 15.1167 18.125 14.375C18.125 13.3804 17.7299 12.4266 17.0267 11.7234C16.3234 11.0201 15.3696 10.625 14.375 10.625Z" fill="#FF844F"/>
<path d="M14.375 16.875C14.7202 16.875 15 16.5952 15 16.25C15 15.9048 14.7202 15.625 14.375 15.625C14.0298 15.625 13.75 15.9048 13.75 16.25C13.75 16.5952 14.0298 16.875 14.375 16.875Z" fill="#FF844F"/>
<path d="M12.5 1.25H2.5C2.16848 1.25 1.85054 1.3817 1.61612 1.61612C1.3817 1.85054 1.25 2.16848 1.25 2.5V5C1.25 5.33152 1.3817 5.64946 1.61612 5.88388C1.85054 6.1183 2.16848 6.25 2.5 6.25V17.5C2.5 17.8315 2.6317 18.1495 2.86612 18.3839C3.10054 18.6183 3.41848 18.75 3.75 18.75H8.75V17.5H3.75V16.25H6.875V7.5H3.75V6.25H11.25V8.125H12.5V6.25C12.8315 6.25 13.1495 6.1183 13.3839 5.88388C13.6183 5.64946 13.75 5.33152 13.75 5V2.5C13.75 2.16848 13.6183 1.85054 13.3839 1.61612C13.1495 1.3817 12.8315 1.25 12.5 1.25ZM5.625 8.75V15H3.75V8.75H5.625ZM2.5 5V2.5H12.5V5H2.5Z" fill="#FF844F"/>
</svg>
