<svg width="319" height="112" viewBox="0 0 319 112" fill="none" xmlns="http://www.w3.org/2000/svg">
<rect width="319" height="112" fill="white"/>
<path d="M42.9001 77.1079C37.055 77.1079 32.6058 75.4285 29.5524 72.0698C26.499 68.6893 24.9723 63.5858 24.9723 56.7593C24.9723 42.7137 31.2427 35.6909 43.7834 35.6909C45.6154 35.6909 47.3929 35.8872 49.1159 36.2798C50.8389 36.6506 52.2347 37.1195 53.3034 37.6865C54.3721 38.2536 54.9064 38.7988 54.9064 39.3223C54.9064 39.6494 54.7865 40.0856 54.5466 40.6309C54.3285 41.1761 54.0667 41.6559 53.7614 42.0703C53.4561 42.4847 53.1834 42.6919 52.9435 42.6919C52.8345 42.6919 52.5291 42.5501 52.0275 42.2666C50.8934 41.6559 49.7048 41.1434 48.4616 40.729C47.2184 40.3146 45.7026 40.1074 43.9142 40.1074C38.9852 40.1074 35.4738 41.4705 33.3801 44.1968C31.2863 46.9012 30.2394 50.9142 30.2394 56.2358C30.2394 61.2521 31.21 65.2542 33.151 68.2422C35.1139 71.2083 38.4945 72.6914 43.2926 72.6914C44.7539 72.6914 46.1606 72.626 47.5129 72.4951C48.8869 72.3424 49.9774 72.1571 50.7843 71.939V60.1943H43.9797C43.5653 60.1943 43.2599 60.0635 43.0636 59.8018C42.8892 59.5182 42.8019 59.0711 42.8019 58.4604V57.5117C42.8019 56.901 42.8892 56.4648 43.0636 56.2031C43.2599 55.9196 43.5653 55.7778 43.9797 55.7778H54.154C54.7647 55.7778 55.2118 55.9196 55.4953 56.2031C55.7788 56.4648 55.9206 56.901 55.9206 57.5117V72.9204C55.9206 74.4253 54.6992 75.5049 52.2565 76.1592C49.8138 76.7917 46.695 77.1079 42.9001 77.1079ZM68.1559 39.0278C66.6074 39.0278 65.8332 38.6025 65.8332 37.752V34.3169C65.8332 33.4663 66.6074 33.041 68.1559 33.041H68.8429C70.4133 33.041 71.1984 33.4663 71.1984 34.3169V37.752C71.1984 38.6025 70.4133 39.0278 68.8429 39.0278H68.1559ZM68.3849 76.8789C66.8364 76.8789 66.0622 76.4536 66.0622 75.603V47.5337C66.0622 46.6831 66.8364 46.2578 68.3849 46.2578H68.6139C70.1842 46.2578 70.9694 46.6831 70.9694 47.5337V75.603C70.9694 76.4536 70.1842 76.8789 68.6139 76.8789H68.3849ZM89.944 77.1079C88.0029 77.1079 86.269 76.519 84.7424 75.3413C83.2157 74.1636 82.4523 72.0807 82.4523 69.0928V50.5435H79.5407C79.1263 50.5435 78.821 50.4126 78.6247 50.1509C78.4502 49.8674 78.363 49.4202 78.363 48.8096V48.0898C78.363 47.4792 78.4502 47.043 78.6247 46.7812C78.821 46.4977 79.1263 46.356 79.5407 46.356H82.4523L83.1393 40.271C83.1829 39.4204 83.8045 38.9951 85.0041 38.9951H85.5602C86.1709 38.9951 86.618 39.1042 86.9015 39.3223C87.1851 39.5186 87.3268 39.8348 87.3268 40.271V46.356H92.2013C92.6157 46.356 92.9102 46.4977 93.0846 46.7812C93.2809 47.043 93.3791 47.4792 93.3791 48.0898V48.8096C93.3791 49.4202 93.2809 49.8674 93.0846 50.1509C92.9102 50.4126 92.6157 50.5435 92.2013 50.5435H87.3268V68.6348C87.3268 70.2269 87.5995 71.3392 88.1447 71.9717C88.7118 72.6042 89.4751 72.9204 90.4347 72.9204C91.1763 72.9204 91.7433 72.8768 92.1359 72.7896C92.5503 72.7023 92.8229 72.6587 92.9538 72.6587C93.3027 72.6587 93.5863 73.0076 93.8044 73.7056C94.0443 74.4035 94.1642 74.9596 94.1642 75.374C94.1642 76.5299 92.7575 77.1079 89.944 77.1079Z" fill="#45CCD2"/>
<path d="M145.559 76.7808C144.949 76.7808 144.501 76.639 144.218 76.3555C143.934 76.0719 143.793 75.6357 143.793 75.0469V37.8174C143.793 37.2067 143.934 36.7705 144.218 36.5088C144.501 36.2253 144.949 36.0835 145.559 36.0835H155.963C158.798 36.0835 161.186 36.5088 163.127 37.3594C165.068 38.21 166.529 39.4095 167.511 40.958C168.492 42.5065 168.983 44.3058 168.983 46.356C168.983 47.6209 168.689 48.8859 168.1 50.1509C167.511 51.394 166.726 52.4736 165.744 53.3896C164.763 54.2839 163.716 54.8836 162.604 55.189V55.418C162.604 55.2653 163.356 55.5597 164.861 56.3013C166.366 57.021 167.718 58.1006 168.918 59.54C170.139 60.9577 170.75 62.8006 170.75 65.0688C170.75 72.8768 165.69 76.7808 155.57 76.7808H145.559ZM155.701 53.6187C157.228 53.6187 158.602 53.3242 159.823 52.7354C161.044 52.1247 161.993 51.3068 162.669 50.2817C163.367 49.2349 163.716 48.0789 163.716 46.814C163.716 44.633 163.062 43.0409 161.753 42.0376C160.445 41.0125 158.351 40.5 155.472 40.5H148.929V53.6187H155.701ZM157.435 72.3643C159.986 72.3643 161.96 71.6991 163.356 70.3687C164.752 69.0164 165.45 67.1735 165.45 64.8398C165.45 62.6807 164.687 61.0122 163.16 59.8345C161.633 58.6349 159.387 58.0352 156.421 58.0352H148.929V72.3643H157.435ZM190.117 77.1079C185.297 77.1079 181.709 75.8538 179.354 73.3457C177.02 70.8158 175.853 66.9554 175.853 61.7646C175.853 56.6175 176.998 52.7135 179.288 50.0527C181.578 47.3701 184.948 46.0288 189.397 46.0288C193.367 46.0288 196.354 47.3156 198.361 49.8892C200.389 52.4627 201.403 56.2358 201.403 61.2085C201.403 61.4266 201.284 61.7319 201.044 62.1245C200.826 62.4953 200.553 62.8333 200.226 63.1387C199.92 63.4222 199.659 63.564 199.441 63.564H181.088C181.327 66.8136 182.156 69.1909 183.574 70.6958C185.013 72.1789 187.173 72.9204 190.051 72.9204C191.665 72.9204 193.05 72.7241 194.206 72.3315C195.384 71.939 196.518 71.4591 197.609 70.8921C197.718 70.8485 197.881 70.7721 198.099 70.6631C198.317 70.554 198.47 70.4995 198.557 70.4995C198.797 70.4995 199.07 70.6958 199.375 71.0884C199.702 71.4591 199.975 71.8844 200.193 72.3643C200.433 72.8223 200.553 73.1603 200.553 73.3784C200.553 73.8582 200.073 74.3926 199.113 74.9814C198.154 75.5703 196.867 76.0719 195.253 76.4863C193.661 76.9007 191.949 77.1079 190.117 77.1079ZM196.202 59.3765C196.202 53.2697 193.879 50.2163 189.234 50.2163C184.239 50.2163 181.524 53.2697 181.088 59.3765H196.202ZM217.794 77.1079C215.853 77.1079 214.119 76.519 212.592 75.3413C211.065 74.1636 210.302 72.0807 210.302 69.0928V50.5435H207.39C206.976 50.5435 206.671 50.4126 206.474 50.1509C206.3 49.8674 206.213 49.4202 206.213 48.8096V48.0898C206.213 47.4792 206.3 47.043 206.474 46.7812C206.671 46.4977 206.976 46.356 207.39 46.356H210.302L210.989 40.271C211.033 39.4204 211.654 38.9951 212.854 38.9951H213.41C214.021 38.9951 214.468 39.1042 214.751 39.3223C215.035 39.5186 215.176 39.8348 215.176 40.271V46.356H220.051C220.465 46.356 220.76 46.4977 220.934 46.7812C221.131 47.043 221.229 47.4792 221.229 48.0898V48.8096C221.229 49.4202 221.131 49.8674 220.934 50.1509C220.76 50.4126 220.465 50.5435 220.051 50.5435H215.176V68.6348C215.176 70.2269 215.449 71.3392 215.994 71.9717C216.561 72.6042 217.325 72.9204 218.284 72.9204C219.026 72.9204 219.593 72.8768 219.986 72.7896C220.4 72.7023 220.673 72.6587 220.803 72.6587C221.152 72.6587 221.436 73.0076 221.654 73.7056C221.894 74.4035 222.014 74.9596 222.014 75.374C222.014 76.5299 220.607 77.1079 217.794 77.1079ZM237.75 77.1079C235.809 77.1079 234.075 76.519 232.548 75.3413C231.021 74.1636 230.258 72.0807 230.258 69.0928V50.5435H227.346C226.932 50.5435 226.627 50.4126 226.43 50.1509C226.256 49.8674 226.169 49.4202 226.169 48.8096V48.0898C226.169 47.4792 226.256 47.043 226.43 46.7812C226.627 46.4977 226.932 46.356 227.346 46.356H230.258L230.945 40.271C230.989 39.4204 231.61 38.9951 232.81 38.9951H233.366C233.977 38.9951 234.424 39.1042 234.707 39.3223C234.991 39.5186 235.132 39.8348 235.132 40.271V46.356H240.007C240.421 46.356 240.716 46.4977 240.89 46.7812C241.087 47.043 241.185 47.4792 241.185 48.0898V48.8096C241.185 49.4202 241.087 49.8674 240.89 50.1509C240.716 50.4126 240.421 50.5435 240.007 50.5435H235.132V68.6348C235.132 70.2269 235.405 71.3392 235.95 71.9717C236.517 72.6042 237.281 72.9204 238.24 72.9204C238.982 72.9204 239.549 72.8768 239.942 72.7896C240.356 72.7023 240.629 72.6587 240.759 72.6587C241.108 72.6587 241.392 73.0076 241.61 73.7056C241.85 74.4035 241.97 74.9596 241.97 75.374C241.97 76.5299 240.563 77.1079 237.75 77.1079ZM261.435 77.1079C256.615 77.1079 253.028 75.8538 250.672 73.3457C248.338 70.8158 247.172 66.9554 247.172 61.7646C247.172 56.6175 248.317 52.7135 250.607 50.0527C252.897 47.3701 256.266 46.0288 260.715 46.0288C264.685 46.0288 267.673 47.3156 269.679 49.8892C271.708 52.4627 272.722 56.2358 272.722 61.2085C272.722 61.4266 272.602 61.7319 272.362 62.1245C272.144 62.4953 271.871 62.8333 271.544 63.1387C271.239 63.4222 270.977 63.564 270.759 63.564H252.406C252.646 66.8136 253.475 69.1909 254.892 70.6958C256.332 72.1789 258.491 72.9204 261.37 72.9204C262.984 72.9204 264.369 72.7241 265.525 72.3315C266.702 71.939 267.836 71.4591 268.927 70.8921C269.036 70.8485 269.2 70.7721 269.418 70.6631C269.636 70.554 269.788 70.4995 269.876 70.4995C270.116 70.4995 270.388 70.6958 270.694 71.0884C271.021 71.4591 271.293 71.8844 271.511 72.3643C271.751 72.8223 271.871 73.1603 271.871 73.3784C271.871 73.8582 271.391 74.3926 270.432 74.9814C269.472 75.5703 268.185 76.0719 266.571 76.4863C264.979 76.9007 263.267 77.1079 261.435 77.1079ZM267.52 59.3765C267.52 53.2697 265.197 50.2163 260.552 50.2163C255.557 50.2163 252.842 53.2697 252.406 59.3765H267.52ZM282.962 76.8789C282.133 76.8789 281.533 76.7808 281.162 76.5845C280.792 76.3664 280.606 76.0392 280.606 75.603V55.189C280.606 52.659 280.486 50.8379 280.246 49.7256C280.006 48.5915 279.886 47.9699 279.886 47.8608C279.886 47.381 280.246 47.043 280.966 46.8467C281.708 46.6286 282.405 46.5195 283.06 46.5195C283.583 46.5195 283.976 46.8031 284.237 47.3701C284.499 47.9154 284.728 48.6896 284.924 49.6929L285.088 50.3799C287.16 47.4792 289.406 46.0288 291.827 46.0288C292.94 46.0288 293.779 46.236 294.346 46.6504C294.913 47.043 295.197 47.5773 295.197 48.2534C295.197 48.9077 295.077 49.6056 294.837 50.3472C294.619 51.0669 294.357 51.4268 294.052 51.4268C293.899 51.4268 293.627 51.3613 293.234 51.2305C292.885 51.0778 292.536 50.9688 292.187 50.9033C291.838 50.8161 291.391 50.7725 290.846 50.7725C289.952 50.7725 289.101 51.0342 288.294 51.5576C287.509 52.0811 286.844 52.659 286.299 53.2915C285.753 53.924 285.481 54.2729 285.481 54.3384V75.603C285.481 76.0392 285.295 76.3664 284.924 76.5845C284.554 76.7808 283.976 76.8789 283.191 76.8789H282.962Z" fill="#55A5D9"/>
<path fill-rule="evenodd" clip-rule="evenodd" d="M110.888 37.5888C109.783 37.5888 108.888 38.4842 108.888 39.5888V50.6299H99.5935C98.489 50.6299 97.5935 51.5253 97.5935 52.6299C97.5935 53.7345 98.489 54.6299 99.5935 54.6299H110.888C111.993 54.6299 112.888 53.7345 112.888 52.6299C112.888 52.6024 112.887 52.575 112.886 52.5477C112.887 52.5204 112.888 52.493 112.888 52.4655V39.5888C112.888 38.4842 111.993 37.5888 110.888 37.5888ZM122.541 37.5888C121.436 37.5888 120.541 38.4842 120.541 39.5888V52.4655C120.541 53.3427 121.106 54.088 121.891 54.3577C122.187 54.5307 122.532 54.6299 122.899 54.6299H134.194C135.299 54.6299 136.194 53.7345 136.194 52.6299C136.194 51.5253 135.299 50.6299 134.194 50.6299H124.541V39.5888C124.541 38.4842 123.646 37.5888 122.541 37.5888ZM122.899 77.4792C124.004 77.4792 124.899 76.5837 124.899 75.4792V64.4381H134.194C135.298 64.4381 136.194 63.5426 136.194 62.4381C136.194 61.3335 135.298 60.4381 134.194 60.4381H122.899C121.795 60.4381 120.899 61.3335 120.899 62.4381C120.899 62.4656 120.9 62.493 120.901 62.5203C120.9 62.5475 120.899 62.5749 120.899 62.6025V75.4792C120.899 76.5837 121.795 77.4792 122.899 77.4792ZM111.246 77.4792C112.351 77.4792 113.246 76.5837 113.246 75.4792V62.6025C113.246 61.7253 112.682 60.98 111.896 60.7103C111.6 60.5372 111.255 60.4381 110.888 60.4381H99.5933C98.4887 60.4381 97.5933 61.3335 97.5933 62.4381C97.5933 63.5426 98.4887 64.4381 99.5933 64.4381H109.246V75.4792C109.246 76.5837 110.142 77.4792 111.246 77.4792Z" fill="#55A5D9"/>
</svg>
