<svg width="26" height="18" viewBox="0 0 26 18" fill="none" xmlns="http://www.w3.org/2000/svg">
<path fill-rule="evenodd" clip-rule="evenodd" d="M24.5136 14.8743C25.2881 14.8743 25.916 15.5022 25.916 16.2767C25.916 17.0513 25.2881 17.6792 24.5136 17.6792L2.07415 17.6792C1.2996 17.6792 0.671701 17.0513 0.671702 16.2767C0.671702 15.5022 1.2996 14.8743 2.07415 14.8743L24.5136 14.8743ZM25.916 9.26448C25.916 8.48993 25.2881 7.86203 24.5136 7.86203L2.07415 7.86203C1.2996 7.86203 0.671702 8.48993 0.671702 9.26448C0.671702 10.039 1.2996 10.6669 2.07415 10.6669L24.5136 10.6669C25.2881 10.6669 25.916 10.039 25.916 9.26448ZM25.916 2.25222C25.916 1.47767 25.2881 0.84977 24.5136 0.849769L2.07416 0.849768C1.2996 0.849767 0.671703 1.47767 0.671703 2.25222C0.671703 3.02677 1.2996 3.65467 2.07416 3.65467L24.5136 3.65467C25.2881 3.65467 25.916 3.02678 25.916 2.25222Z" fill="#4B8FBB"/>
</svg>
